<svg width="24" height="25" viewBox="0 0 24 25" fill="none" xmlns="http://www.w3.org/2000/svg">
<g opacity="0.3" clip-path="url(#clip0_128_36720)">
<path d="M21 6.49997H16V4.82997C15.9765 4.18979 15.7002 3.58503 15.2316 3.14827C14.7629 2.7115 14.1402 2.47837 13.5 2.49997H10.5C9.85975 2.47837 9.23706 2.7115 8.76843 3.14827C8.2998 3.58503 8.02346 4.18979 8 4.82997V6.49997H3C2.73478 6.49997 2.48043 6.60533 2.29289 6.79287C2.10536 6.9804 2 7.23476 2 7.49997C2 7.76519 2.10536 8.01955 2.29289 8.20708C2.48043 8.39462 2.73478 8.49997 3 8.49997H4V19.5C4 20.2956 4.31607 21.0587 4.87868 21.6213C5.44129 22.1839 6.20435 22.5 7 22.5H17C17.7956 22.5 18.5587 22.1839 19.1213 21.6213C19.6839 21.0587 20 20.2956 20 19.5V8.49997H21C21.2652 8.49997 21.5196 8.39462 21.7071 8.20708C21.8946 8.01955 22 7.76519 22 7.49997C22 7.23476 21.8946 6.9804 21.7071 6.79287C21.5196 6.60533 21.2652 6.49997 21 6.49997ZM10 4.82997C10 4.66997 10.21 4.49997 10.5 4.49997H13.5C13.79 4.49997 14 4.66997 14 4.82997V6.49997H10V4.82997ZM18 19.5C18 19.7652 17.8946 20.0195 17.7071 20.2071C17.5196 20.3946 17.2652 20.5 17 20.5H7C6.73478 20.5 6.48043 20.3946 6.29289 20.2071C6.10536 20.0195 6 19.7652 6 19.5V8.49997H18V19.5Z" fill="black"/>
</g>
<defs>
<clipPath id="clip0_128_36720">
<rect width="24" height="24" fill="white" transform="translate(0 0.5)"/>
</clipPath>
</defs>
</svg>
