<svg width="16" height="20" viewBox="0 0 16 20" fill="none" xmlns="http://www.w3.org/2000/svg">
<path d="M13 13V16M13 19H13.01M9 1H5.8C4.11984 1 3.27976 1 2.63803 1.32698C2.07354 1.6146 1.6146 2.07354 1.32698 2.63803C1 3.27976 1 4.11984 1 5.8V14.2C1 15.8802 1 16.7202 1.32698 17.362C1.6146 17.9265 2.07354 18.3854 2.63803 18.673C3.27976 19 4.11984 19 5.8 19H9M9 1L15 7M9 1V3.8C9 4.9201 9 5.48016 9.21799 5.90798C9.40973 6.28431 9.71569 6.59027 10.092 6.78201C10.5198 7 11.0799 7 12.2 7H15M15 7V10" stroke="#CD656B" stroke-width="2" stroke-linecap="round" stroke-linejoin="round"/>
</svg>
